# xmcd
#
# Track frame offsets:
#	183
#	20073
#	43920
#	73070
#	91383
#	117575
#	145358
#	166640
#	198168
#	225303
#
# Disc length: 3310 seconds
#
# Revision: 0
# Processed by: cddbd v1.5.1PL2 Copyright (c) Steve Scherf et al.
# Submitted via: dBpowerAMP V4.0
#
DISCID=870cec0a
DTITLE=Melinda Miel - A Kiss on a Tear
DYEAR=1993
DGENRE=New Age
TTITLE0=Delirium's Mistress
TTITLE1=A Kiss on a Tear
TTITLE2=Secrets in the Attic
TTITLE3=Desire in the Dark
TTITLE4=Castle of Pain
TTITLE5=Delusion's Master
TTITLE6=Love's a Crime
TTITLE7=Just too Late
TTITLE8=Feelings that Need
TTITLE9=Madness and Gin
EXTD=
EXTT0=
EXTT1=
EXTT2=
EXTT3=
EXTT4=
EXTT5=
EXTT6=
EXTT7=
EXTT8=
EXTT9=
PLAYORDER=
